<?xml version="1.0" encoding="utf-8"?>
<!-- Generator: Adobe Illustrator 27.5.0, SVG Export Plug-In . SVG Version: 6.00 Build 0)  -->
<svg version="1.1" id="Layer_1" xmlns="http://www.w3.org/2000/svg" xmlns:xlink="http://www.w3.org/1999/xlink" x="0px" y="0px"
	 viewBox="0 0 4000 4000" style="enable-background:new 0 0 4000 4000;" xml:space="preserve">
<g>
	<g>
		<g>
			<rect style="fill:#B3FFC7;" width="4000" height="4000"/>
		</g>
	</g>
	<g>
		<g>
			<g>
				<g>
					<path style="fill:#58DA3F;" d="M1551.72,2775.157c134.179,205.735,461.038,131.902,413.345-279.777L1551.72,2775.157z"/>
				</g>
			</g>
			<g style="opacity:0.2;">
				<g>
					<path style="fill:#223A14;" d="M1551.72,2775.157c134.179,205.735,461.038,131.902,413.345-279.777L1551.72,2775.157z"/>
				</g>
			</g>
			<g>
				<g>
					<path style="fill:#223A14;" d="M1741.428,2904.449c-78.491,0-155.259-42.983-205.032-119.297
						c-5.454-8.365-3.198-19.551,5.068-25.146l413.347-279.776c5.291-3.579,12.07-4.145,17.883-1.474
						c5.811,2.666,9.807,8.169,10.542,14.521c12.295,106.113,1.396,196.211-32.39,267.798
						c-30.269,64.136-77.31,109.248-136.035,130.459C1790.705,2900.24,1765.974,2904.449,1741.428,2904.449z M1577.375,2779.879
						c56.716,75.103,145.159,106.084,225.005,77.246c82.275-29.722,161.777-131.704,147.385-329.297L1577.375,2779.879z"/>
				</g>
			</g>
			<g>
				<g>
					<path style="fill:#58DA3F;" d="M1281.102,2882.063c96.291,463.03,604.463,778.525,1032.585,426.368
						c216.737-253.828,77.596-520.945-123.987-520.232c-157.605-0.001-260.206,170.879-107.623,292.126
						c34.519,27.43,80.33,37.757,122.273,24.168c37.238-12.065,63.752-39.521,79.868-81.904
						c10.671,262.212-303.927,311.652-468.018,129.582c-112.293-127.143-147.806-300.247-131.106-504.606L1281.102,2882.063z"/>
				</g>
			</g>
			<g style="opacity:0.6;">
				<g>
					<g>
						<path style="fill:#FFFFFF;" d="M2166.833,2833.705c168.525-0.595,293.352,186.003,203.142,395.527
							c130.819-227.221,0.372-441.671-180.275-441.033c-86.885-0.001-157.03,51.939-176.943,118.86
							C2044.811,2863.517,2101.016,2833.704,2166.833,2833.705z"/>
					</g>
				</g>
				<g>
					<g>
						<path style="fill:#FFFFFF;" d="M1662.227,2693.071c-16.7,204.359,18.813,377.463,131.106,504.606
							c140.844,156.277,392.561,141.982,454.31-31.014c-86.338,128.634-304.155,126.743-431.443-14.491
							c-112.293-127.143-147.806-300.247-131.106-504.606l-403.993,234.498c1.986,9.55,4.212,19.013,6.544,28.434L1662.227,2693.071
							z"/>
					</g>
				</g>
			</g>
			<g style="opacity:0.2;">
				<g>
					<g>
						<path style="fill:#223A14;" d="M2082.077,3080.325c34.519,27.431,80.33,37.758,122.274,24.168
							c37.238-12.064,63.752-39.521,79.868-81.904c0.803,19.729-0.268,38.23-2.945,55.542
							c17.253-38.345,26.634-86.243,24.817-143.547c-0.336,50.687-28.398,95.218-70.656,113.158
							c-62.083,26.358-119.296-19.756-125.77-25.154c-50.427-42.049-65.569-122.444-34.935-199.09
							C1994.667,2879.931,1972.181,2992.998,2082.077,3080.325z"/>
					</g>
				</g>
				<g>
					<g>
						<path style="fill:#223A14;" d="M2330.918,3243.744c-360.694,380.883-788.83,39.652-869.956-461.147l29.952-22.319
							l-209.813,121.786c96.291,463.03,604.463,778.525,1032.585,426.368c90.089-105.506,118.651-213.291,106.84-303.201
							C2412.444,3080.807,2384.694,3162.895,2330.918,3243.744z"/>
					</g>
				</g>
			</g>
			<g>
				<g>
					<path style="fill:#223A14;" d="M1921.562,3477.379c-78.213,0-156.543-16.24-232.395-48.941
						c-212.166-91.465-375.388-299.399-425.977-542.651c-1.604-7.715,1.912-15.591,8.726-19.546l403.994-234.497
						c5.894-3.418,13.191-3.281,18.953,0.352c5.757,3.638,9.021,10.171,8.464,16.958c-17.5,214.141,23.906,374.751,126.584,491.011
						c83.071,92.173,213.311,127.241,316.606,85.132c59.016-24.058,98.193-70.567,113.015-131.904
						c-14.158,12.939-30.698,22.5-49.543,28.604c-46.709,15.142-98.782,4.951-139.294-27.251
						c-71.128-56.519-97.82-129.355-73.228-199.829c26.069-74.712,103.32-124.912,192.231-124.912c0.288,0,0.588,0,0.876,0
						c81.333,0,154.973,39.888,202.1,109.551c56.958,84.184,64.478,194.58,20.632,302.871
						c-33.413,82.524-93.362,152.168-173.362,201.401C2138.818,3445.963,2030.312,3477.379,1921.562,3477.379z M1301.804,2891.197
						c51.174,226.211,204.192,418.432,401.848,503.643c170.054,73.311,353.701,58.306,517.119-42.275
						c73.308-45.112,128.159-108.731,158.621-183.97c39.194-96.807,32.991-194.722-17.019-268.643
						c-40.205-59.424-102.817-93.462-171.868-93.462c-0.249,0-0.491,0-0.742,0.005c-72.285,0-137.129,41.274-157.751,100.376
						c-19.15,54.883,3.247,112.881,61.448,159.131c30.891,24.546,70.237,32.422,105.254,21.089
						c31.777-10.298,54.153-33.521,68.406-71.006c3.088-8.115,11.448-12.939,20.039-11.553c8.574,1.396,14.985,8.633,15.339,17.314
						c4.561,112.075-47.256,198.54-142.168,237.232c-117.302,47.822-264.392,8.892-357.717-94.658
						c-104.033-117.788-149.314-276.25-138.105-483.755L1301.804,2891.197z"/>
				</g>
			</g>
			<g>
				<g>
					<path style="fill:#223A14;" d="M2116.67,2962.796c42.045-49.012,128.446-60.626,172.041-5.849
						c42.338,52.502,23.483,128.376-5.31,181.512c-4.714,8.931-15.776,12.346-24.707,7.632c-8.271-4.367-11.814-14.182-8.54-22.705
						c2.511-6.691,5.588-13.194,8.079-19.817c11.137-29.548,20.107-62.23,15.227-93.43c-5.235-36.319-35.463-61.357-73.492-61.218
						c-24.906-0.113-50.571,9.499-71.391,26.357C2120.399,2981.913,2109.668,2970.628,2116.67,2962.796L2116.67,2962.796z"/>
				</g>
			</g>
		</g>
		<g>
			<g>
				<g>
					<path style="fill:#E69037;" d="M3423.028,1390.044l-129.429,77.2c-7.135,4.254-15.092,6.998-23.324,7.958l-25.612,3.064
						l-358.285,276.604c-128.149,134.734-249.94,280.353-404.569,369.81l-189.296,135.787l-606.579,435.166l-218.658,156.87
						l-347.858,249.528l-209.465,150.284l-177.176-306.88l28.356-22.044l482.181-374.385l164.37-127.645l292.656-227.302
						l99.885-68.968l882.954-609.827c11.022-29.499,25.154-75.554,30.185-133.408c3.11-35.444,1.555-61.65,1.143-70.889
						c-2.149-46.101,1.784-122.02,26.618-254.468c5.351-28.584,12.714-56.802,22.501-84.152
						c39.423-110.403,57.717-222.133,23.69-337.11c23.599-29.453,52.732-36.908,91.469-6.083
						c41.115,123.026,56.299,240.93,16.739,348.178c-5.763,48.113-3.933,94.991,6.86,140.406c5.488,23.188,9.101,46.832,9.741,70.66
						c2.973,112.782-0.092,217.972-16.602,306.148c130.435-38.966,305.05-123.758,489.361-218.566
						c37.96,1.692,60.233,21.632,64.44,62.474C3451.475,1359.219,3441.001,1379.342,3423.028,1390.044z"/>
				</g>
			</g>
			<g style="opacity:0.6;">
				<g>
					<g>
						<path style="fill:#FFFFFF;" d="M2980.983,1512.2c124.216-43.04,280.572-119.413,444.696-203.812
							c1.004-0.516,2.157-0.768,3.284-0.699l0.151,0.009c5.484,0.341,8.57-6.003,5.098-10.262
							c-10.694-13.118-26.677-20.103-47.583-21.364c-1.128-0.068-2.279,0.184-3.284,0.701
							c-159.682,82.115-312.001,156.623-434.53,200.235c-2.165,0.771-3.683,2.687-3.983,4.966c-0.021,0.164-0.043,0.328-0.065,0.491
							C2942.078,1502.775,2961.625,1518.908,2980.983,1512.2z"/>
					</g>
				</g>
				<g>
					<g>
						<path style="fill:#FFFFFF;" d="M777.81,2981.729c-1.548-2.682-0.881-6.095,1.564-7.996l24.09-18.728l482.181-374.385
							l164.37-127.645l292.519-227.195c0.092-0.071,0.185-0.14,0.28-0.205l99.742-68.87l881.336-608.709
							c1.052-0.727,1.847-1.727,2.29-2.927c10.917-29.556,24.583-74.914,29.512-131.598c3.11-35.444,1.555-61.65,1.143-70.889
							c-2.149-46.101,1.784-122.02,26.618-254.468c5.351-28.584,12.714-56.802,22.501-84.152
							c39.062-109.392,57.38-220.086,24.612-333.952c-0.567-1.972-0.151-4.141,1.178-5.704c12.453-14.64,26.449-23.151,42.54-23.313
							c4.141-0.042,7.036-4.159,5.74-8.092c-0.211-0.64-0.423-1.28-0.635-1.921c-0.394-1.186-1.151-2.263-2.139-3.029
							c-36.846-28.547-64.938-22.201-87.847,4.75c-1.326,1.56-1.738,3.718-1.172,5.685c32.771,113.868,14.453,224.565-24.61,333.96
							c-9.787,27.349-17.151,55.568-22.501,84.152c-24.834,132.448-28.767,208.367-26.618,254.468
							c0.412,9.239,1.967,35.444-1.143,70.889c-4.929,56.684-18.595,102.042-29.512,131.598c-0.443,1.2-1.237,2.2-2.29,2.927
							l-881.336,608.709l-99.742,68.869c-0.095,0.066-0.189,0.135-0.28,0.206l-292.519,227.195l-164.37,127.645l-482.181,374.385
							l-24.09,18.728c-2.445,1.901-3.113,5.314-1.564,7.996l171.052,296.272c1.833,3.175,6.006,4.075,8.984,1.938l6.902-4.952
							c2.59-1.858,3.349-5.378,1.755-8.138L777.81,2981.729z"/>
					</g>
				</g>
			</g>
			<g>
				<g>
					<path style="fill:#61D726;" d="M2738.897,952.481c-158.165,52.065-291.895-60.787-369.688-257.787
						c-47.517-79.618-107.257-122.237-181.795-120.054C2453.818,412.282,2771.674,536.909,2738.897,952.481z"/>
				</g>
			</g>
			<g style="opacity:0.6;">
				<g>
					<path style="fill:#FFFFFF;" d="M2187.414,574.64c13.228-0.387,25.979,0.664,38.289,3.055
						c248.861-117.147,520.522,7.666,504.273,377.446c2.971-0.866,5.933-1.677,8.921-2.661
						C2771.674,536.909,2453.818,412.282,2187.414,574.64z"/>
				</g>
			</g>
			<g style="opacity:0.3;">
				<g>
					<path style="fill:#223A14;" d="M2682.47,653.482c11.232,35.14,18.697,74.362,21.709,117.683
						c4.859,69.876-59.645,125.089-127.732,108.646c-102.035-24.64-186.865-122.773-242.789-264.391
						c-19.997-33.506-42.167-60.43-66.686-80.249c-26.761,10.403-53.409,23.532-79.559,39.469
						c74.539-2.183,134.278,40.436,181.795,120.054c77.793,197,211.523,309.852,369.688,257.787
						C2748.889,825.797,2726.255,726.203,2682.47,653.482z"/>
				</g>
			</g>
			<g>
				<g>
					<path style="fill:#223A14;" d="M909.97,3270.596c-1.287,0-2.578-0.136-3.857-0.415c-5.049-1.089-9.402-4.263-11.985-8.735
						l-177.175-306.875c-4.57-7.915-2.598-17.988,4.622-23.594l967.544-751.382c0.268-0.21,0.544-0.41,0.825-0.605l978.071-675.466
						c14.358-40.01,23.479-81.448,27.122-123.254c2.827-32.402,1.665-56.563,1.172-66.88l-0.076-1.572
						c-2.847-61.228,6.199-148.269,26.89-258.704c5.688-30.349,13.518-59.595,23.271-86.921
						c44.678-125.161,52.102-228.674,23.364-325.762c-1.702-5.75-0.479-11.97,3.276-16.646
						c32.273-40.21,73.872-43.391,117.129-8.958c2.766,2.202,4.834,5.159,5.957,8.513c48.162,144.065,53.689,257.983,17.336,358.242
						c-5.327,46.284-3.071,90.657,6.714,131.916c6.252,26.372,9.597,50.708,10.227,74.399
						c3.069,115.549-0.708,205.669-11.868,280.205c130.146-43.179,296.46-125.295,458-208.411c2.837-1.46,6.025-2.185,9.197-2.007
						c47.703,2.158,76.75,30.168,81.794,78.87c2.864,27.615-10.925,54.785-35.125,69.219l-129.448,77.195
						c-9.397,5.601-19.663,9.102-30.518,10.403l-20.596,2.473l-353.154,272.651c-20.376,21.438-40.942,43.521-60.842,64.888
						c-105.461,113.237-214.5,230.318-346.089,306.66L920.635,3267.164C917.5,3269.415,913.764,3270.596,909.97,3270.596z
						 M756.614,2950.094l159.102,275.571L2471.145,2109.8c0.486-0.346,0.986-0.674,1.504-0.971
						c127.207-73.594,234.58-188.887,338.416-300.381c20.278-21.772,41.248-44.287,62.07-66.182
						c0.645-0.676,1.338-1.304,2.078-1.873l358.257-276.592c2.612-2.017,5.723-3.291,8.999-3.684l25.605-3.074
						c5.74-0.688,11.169-2.539,16.138-5.5l129.446-77.195c12.014-7.163,18.872-20.518,17.473-34.021
						c-3.035-29.299-15.801-43.215-42.397-45.767c-173.621,89.258-352.5,177.046-487.957,217.515
						c-6.113,1.812-12.737,0.334-17.476-3.931c-4.741-4.268-6.917-10.696-5.742-16.965c14.517-77.505,19.685-173.567,16.265-302.307
						c-0.562-21.145-3.589-43.039-9.253-66.934c-10.928-46.082-13.35-95.474-7.195-146.802c0.171-1.419,0.508-2.815,1.001-4.155
						c33.704-91.331,28.892-196.536-15.2-330.74c-25.613-18.75-41.536-14.685-55.559-0.425
						c27.761,102.009,19.18,209.963-26.765,338.674c-9.109,25.522-16.433,52.896-21.768,81.36
						c-20.171,107.656-29.021,191.858-26.304,250.266l0.073,1.519c0.53,11.055,1.772,36.946-1.267,71.812
						c-4.092,46.953-14.602,93.45-31.238,138.196c-1.309,3.518-3.665,6.548-6.753,8.679l-982.441,678.482L756.614,2950.094z"/>
				</g>
			</g>
			<g>
				<g>
					<path style="fill:#223A14;" d="M2920.876,1443.924c-5.093,22.688-12.19,45.127-22.063,66.284
						c-9.814,21.179-22.429,40.857-36.826,58.54c-3.105,3.816-8.718,4.39-12.537,1.284c-3.484-2.837-4.25-7.786-1.995-11.526
						c11.118-18.489,19.932-37.93,26.001-58.093c6.116-20.154,9.575-40.974,11.25-62.019
						C2887.81,1412.628,2925.601,1418.346,2920.876,1443.924L2920.876,1443.924z"/>
				</g>
			</g>
			<g>
				<g>
					<g>
						<path style="fill:#223A14;" d="M3118.095,1447.927c-63.915,42.416-127.856,84.793-191.743,127.251
							c-55.113,36.627-110.212,73.921-159.485,118.295c-27.329,24.612-52.499,51.431-74.611,80.841
							c-5.307,7.059,6.6,13.905,11.847,6.925c39.288-52.258,89.272-95.422,141.759-133.936
							c55.845-40.979,114.46-78.229,172.155-116.518c35.668-23.67,71.335-47.341,107.003-71.011
							C3132.344,1454.913,3125.481,1443.025,3118.095,1447.927L3118.095,1447.927z"/>
					</g>
				</g>
			</g>
			<g>
				<g>
					<g>
						<path style="fill:#223A14;" d="M2684.776,1805.868c0.103-0.126,0.216-0.239,0.342-0.342c-0.463,0.358-0.926,0.715-1.388,1.073
							c0.152-0.117,0.313-0.213,0.489-0.29c-0.546,0.23-1.093,0.461-1.639,0.692c0.208-0.086,0.424-0.143,0.647-0.174
							c-0.608,0.082-1.216,0.163-1.824,0.245c0.265-0.032,0.528-0.027,0.792,0.008c-0.608-0.082-1.216-0.163-1.824-0.245
							c0.287,0.043,0.564,0.119,0.833,0.228c-0.546-0.23-1.093-0.461-1.639-0.691c0.283,0.12,0.548,0.272,0.792,0.459
							c-0.463-0.358-0.926-0.715-1.388-1.073c0.193,0.154,0.367,0.327,0.518,0.522c-0.357-0.463-0.715-0.926-1.073-1.389
							c0.124,0.167,0.227,0.344,0.309,0.535c-0.23-0.546-0.461-1.093-0.692-1.639c0.071,0.178,0.119,0.36,0.145,0.551
							c-0.082-0.608-0.163-1.216-0.245-1.824c0.02,0.18,0.018,0.357-0.003,0.536c0.082-0.608,0.163-1.216,0.245-1.824
							c-0.027,0.187-0.075,0.366-0.146,0.54c0.23-0.546,0.461-1.093,0.692-1.639c-0.08,0.183-0.181,0.352-0.303,0.51
							c0.358-0.463,0.715-0.926,1.073-1.388c-0.137,0.17-0.292,0.319-0.464,0.453c0.463-0.357,0.926-0.715,1.388-1.073
							c-0.206,0.154-0.428,0.28-0.664,0.383c0.546-0.23,1.093-0.461,1.639-0.692c-0.29,0.121-0.592,0.202-0.903,0.246
							c0.608-0.082,1.216-0.163,1.824-0.245c-0.292,0.036-0.584,0.038-0.876,0c0.608,0.082,1.216,0.163,1.824,0.245
							c-0.234-0.034-0.46-0.093-0.679-0.182c0.546,0.23,1.092,0.461,1.639,0.692c-0.184-0.079-0.354-0.176-0.514-0.295
							c0.463,0.358,0.926,0.715,1.388,1.073c-0.146-0.115-0.275-0.243-0.39-0.389c0.357,0.463,0.715,0.926,1.073,1.388
							c-0.063-0.084-0.12-0.171-0.172-0.262c-0.431-0.8-1.02-1.441-1.767-1.925c-0.663-0.606-1.44-1.016-2.333-1.228
							c-0.912-0.286-1.824-0.327-2.736-0.123c-0.913,0.041-1.763,0.313-2.551,0.814c-0.463,0.358-0.926,0.715-1.388,1.073
							c-0.85,0.856-1.438,1.865-1.764,3.027c-0.082,0.608-0.163,1.216-0.245,1.824c0.004,1.238,0.316,2.392,0.937,3.462
							c0.196,0.341,0.476,0.655,0.708,0.956c0.221,0.286,0.472,0.668,0.756,0.938c0.036,0.034,0.074,0.067,0.112,0.099
							c0.448,0.382,1.004,0.812,1.486,1.149c0.095,0.066,0.192,0.129,0.295,0.182c0.703,0.363,1.448,0.721,2.224,0.906
							c0.684,0.163,1.404,0.216,2.098,0.297c0.119,0.014,0.238,0.026,0.358,0.029c0.112,0.003,0.225-0.001,0.337-0.01
							c0.711-0.056,1.431-0.164,2.134-0.284c0.231-0.039,0.459-0.102,0.678-0.187c0.629-0.245,1.268-0.501,1.876-0.795
							c0.108-0.052,0.213-0.11,0.314-0.174c0.57-0.36,1.095-0.811,1.617-1.233c0.091-0.074,0.18-0.149,0.263-0.233
							c0.041-0.041,0.08-0.084,0.118-0.128c0.398-0.454,0.778-0.979,1.135-1.465c0.069-0.093,0.136-0.186,0.193-0.287
							c0.029-0.051,0.054-0.102,0.079-0.155c0.258-0.536,0.521-1.174,0.731-1.73c0.042-0.111,0.08-0.222,0.105-0.338
							c0.013-0.059,0.022-0.119,0.031-0.179c0.099-0.63,0.204-1.293,0.256-1.929c0.01-0.126,0.008-0.252-0.002-0.378
							c-0.049-0.608-0.159-1.327-0.258-1.928c-0.01-0.06-0.021-0.12-0.035-0.179c-0.093-0.39-0.303-0.794-0.449-1.138
							c-0.14-0.331-0.287-0.759-0.482-1.096c-0.342-0.592-0.823-1.115-1.245-1.647c-0.149-0.188-0.312-0.354-0.497-0.506
							c-0.524-0.429-1.059-0.872-1.627-1.246c-0.105-0.069-0.215-0.133-0.327-0.19c-0.607-0.308-1.254-0.554-1.885-0.805
							c-0.118-0.047-0.237-0.091-0.358-0.126c-0.139-0.04-0.279-0.071-0.422-0.094c-0.637-0.106-1.314-0.195-1.957-0.263
							c-0.071-0.008-0.142-0.014-0.213-0.017c-0.132-0.006-0.264-0.004-0.396,0.008c-0.644,0.058-1.316,0.157-1.954,0.26
							c-0.068,0.011-0.137,0.022-0.204,0.037c-0.126,0.028-0.249,0.067-0.369,0.114c-0.573,0.22-1.204,0.476-1.757,0.743
							c-0.062,0.03-0.123,0.061-0.182,0.096c-0.052,0.031-0.103,0.064-0.152,0.099c-0.506,0.362-1.042,0.764-1.513,1.169
							c-0.11,0.094-0.209,0.196-0.301,0.308c-0.669,0.621-1.142,1.357-1.418,2.208c-0.43,0.817-0.627,1.698-0.591,2.643
							c-0.036,0.944,0.161,1.825,0.591,2.643c0.277,0.85,0.749,1.586,1.418,2.208c0.463,0.358,0.926,0.715,1.389,1.073
							c1.07,0.62,2.224,0.933,3.462,0.937c0.608-0.082,1.216-0.163,1.823-0.245
							C2682.911,1807.306,2683.92,1806.718,2684.776,1805.868L2684.776,1805.868z"/>
					</g>
				</g>
			</g>
			<g>
				<g>
					<g>
						<path style="fill:#223A14;" d="M2821.954,1141.361c6.187,77.383-18.08,152.374-26.598,228.596
							c-8.513,76.175,0.875,153.873-14.554,229.35c-8.7,42.559-25.48,82.819-42.155,122.74c-3.399,8.137,9.872,11.689,13.23,3.647
							c14.856-35.568,29.798-71.339,39.029-108.865c9.274-37.701,11.979-76.598,12.996-115.293
							c1.006-38.316,0.458-76.709,3.573-114.943c3.186-39.11,11.211-77.539,18.044-116.116
							c7.544-42.591,13.621-85.786,10.157-129.118C2834.976,1132.619,2821.249,1132.544,2821.954,1141.361L2821.954,1141.361z"/>
					</g>
				</g>
			</g>
			<g>
				<g>
					<g>
						<path style="fill:#223A14;" d="M2776.146,1625.104c-5.463,27.36-14.36,53.814-26.769,78.809
							c-3.277,6.601,5.276,14.442,10.774,8.313c36.852-41.075,40.196-97.608,41.989-150.066c0.302-8.831-13.419-8.82-13.72,0
							c-1.655,48.417-3.822,102.301-37.971,140.364c3.592,2.771,7.183,5.542,10.775,8.313
							c12.932-26.048,22.456-53.562,28.152-82.086C2791.098,1620.129,2777.876,1616.439,2776.146,1625.104L2776.146,1625.104z"/>
					</g>
				</g>
			</g>
			<g>
				<g>
					<g>
						<path style="fill:#223A14;" d="M2801.783,1561.366c0-4.319,0-8.639,0-12.958c0-1.759-0.765-3.607-2.009-4.851
							c-1.19-1.19-3.142-2.086-4.851-2.009c-1.774,0.079-3.614,0.662-4.851,2.009c-1.232,1.342-2.009,2.992-2.009,4.851
							c0,4.319,0,8.639,0,12.958c0,1.759,0.765,3.607,2.009,4.851c1.19,1.19,3.142,2.086,4.851,2.009
							c1.774-0.079,3.615-0.662,4.851-2.009C2801.006,1564.875,2801.783,1563.225,2801.783,1561.366L2801.783,1561.366z"/>
					</g>
				</g>
			</g>
			<g>
				<g>
					<g>
						<path style="fill:#223A14;" d="M2796.007,1754.216c-23.008,34.388-53.185,63.007-84.124,90.164
							c-33.961,29.81-68.398,59.09-102.619,88.602c-32.823,28.306-65.442,57.282-102.285,80.35
							c-12.667,7.931-31.165,19.644-22.111,37.32c3.259,6.362,10.109,10.848,17.417,9.08c8.701-2.105,16.082-11.456,22.399-17.243
							c36.512-33.447,71.201-68.846,103.988-105.949c5.937-6.719-2.914-15.225-9.702-9.702
							c-40.385,32.859-80.769,65.719-121.154,98.579c-5.195,4.227,0.403,13.955,6.675,11.466
							c73.39-29.123,113.838-100.682,166.189-155.224c6.116-6.372-3.573-16.087-9.702-9.702
							c-50.144,52.242-89.825,123.795-160.135,151.695c2.225,3.822,4.45,7.644,6.675,11.466
							c40.385-32.859,80.769-65.719,121.154-98.579c-3.234-3.234-6.468-6.468-9.702-9.702c-26.801,30.33-54.864,59.53-84.175,87.444
							c-7.398,7.045-14.873,14.009-22.424,20.891c-3.535,3.221-7.015,7.055-10.91,9.818c-2.53,1.795-3.818,1.479-4.812-1.68
							c-2.22-7.058,7.778-12.288,12.582-15.247c8.407-5.178,16.662-10.569,24.729-16.265c32.555-22.988,62.375-49.598,92.516-75.592
							c31.439-27.112,63.057-54.031,94.277-81.396c32.156-28.186,63.206-57.956,87.1-93.669
							C2812.777,1753.782,2800.898,1746.905,2796.007,1754.216L2796.007,1754.216z"/>
					</g>
				</g>
			</g>
			<g>
				<g>
					<g>
						<path style="fill:#223A14;" d="M2667.82,1890.571c9.082-12.341,22.11-21.539,36.647-26.263
							c8.395-2.728,4.994-15.175-3.647-13.23c-21.823,4.91-39.938,16.813-53.07,34.861c-11.56,15.887-19.295,34.757-34.915,47.346
							c-2.887,2.327-2.422,7.279,0,9.702c2.853,2.853,6.808,2.333,9.702,0c15.152-12.212,23.498-30.129,34.149-45.953
							c5.179-7.694,11.221-14.958,18.87-20.319c8.749-6.131,18.521-10.07,28.911-12.407c-1.216-4.41-2.432-8.82-3.647-13.23
							c-18.183,5.909-33.536,17.199-44.847,32.568c-2.198,2.986-0.499,7.655,2.461,9.386
							C2661.917,1895.07,2665.617,1893.564,2667.82,1890.571L2667.82,1890.571z"/>
					</g>
				</g>
			</g>
			<g>
				<g>
					<g>
						<path style="fill:#223A14;" d="M2822.364,1746.592c8.828,0,8.843-13.72,0-13.72
							C2813.535,1732.871,2813.521,1746.592,2822.364,1746.592L2822.364,1746.592z"/>
					</g>
				</g>
			</g>
			<g>
				<g>
					<g>
						<path style="fill:#223A14;" d="M858.273,2998.256c34.112-24.714,68.518-49.631,106.781-67.623
							c19.386-9.115,40.091-15.115,59.144-24.964c18.005-9.307,34.488-21.418,49.029-35.517c5.812-5.635-1.543-14.137-8.313-10.774
							c-16.877,8.382-29.588,22.426-43.582,34.654c-6.646,5.808-13.798,11.302-21.933,14.869
							c-9.987,4.378-21.052,4.602-31.425,7.594c-20.557,5.93-36.111,22.104-51.658,35.921c-9.033,8.028-18.066,16.055-27.098,24.083
							c-4.953,4.402-18.884,21.123-26.299,13.528c-0.463,3.591-0.926,7.183-1.388,10.774
							c34.415-25.759,68.829-51.518,103.244-77.277c6.986-5.229,0.154-17.146-6.925-11.847
							c-34.415,25.759-68.829,51.518-103.244,77.277c-3.51,2.627-4.753,7.328-1.388,10.774c13.695,14.029,30.223,0.228,41.186-9.514
							c15.436-13.718,30.781-27.547,46.321-41.147c6.542-5.725,13.293-11.242,21.001-15.341c8.644-4.596,18.123-5.717,27.584-7.596
							c15.922-3.163,28.923-11.3,41.045-21.807c13.411-11.625,25.366-25.094,41.484-33.098c-2.771-3.592-5.542-7.183-8.313-10.775
							c-14.522,14.08-30.994,25.83-49.121,34.829c-18.888,9.376-39.255,15.358-58.293,24.464
							c-37.465,17.919-71.249,42.385-104.762,66.666C844.265,2991.54,851.105,3003.449,858.273,2998.256L858.273,2998.256z"/>
					</g>
				</g>
			</g>
			<g>
				<g>
					<g>
						<path style="fill:#223A14;" d="M963.248,2921.211c11.332,0.779,22.736-0.151,33.838-2.532
							c3.514-0.754,5.887-5.054,4.791-8.439c-1.199-3.704-4.674-5.599-8.439-4.792c-2.626,0.563-5.265,1.036-7.922,1.427
							c-2.034,0.299,1.41-0.155-0.632,0.08c-0.615,0.071-1.23,0.144-1.846,0.208c-1.334,0.14-2.672,0.255-4.01,0.347
							c-5.255,0.361-10.525,0.341-15.78-0.02c-3.588-0.247-7.018,3.332-6.86,6.86
							C956.564,2918.278,959.405,2920.946,963.248,2921.211L963.248,2921.211z"/>
					</g>
				</g>
			</g>
			<g>
				<g>
					<g>
						<path style="fill:#223A14;" d="M1018.883,3071.418c23.17-19.228,46.341-38.455,69.511-57.683
							c10.995-9.124,21.675-19.424,33.613-27.304c11.686-7.715,24.093-5.626,37.113-8.556c22.953-5.166,38.389-24.887,54.665-40.229
							c19.812-18.674,42.752-33.56,66.266-47.113c12.758-7.353,26.076-16.309,40.131-20.898
							c10.777-3.519,30.461-2.153,29.432,13.586c1.679-2.205,3.358-4.41,5.036-6.615c-65.916,24.599-129.97,54.014-191.531,88.08
							c2.308,3.949,4.617,7.898,6.925,11.847c49.878-35.737,102.135-68.039,156.401-96.678c-2.308-3.949-4.617-7.898-6.925-11.847
							c-13.612,9.985-27.224,19.969-40.835,29.954c-4.96,3.638-4.005,13.241,3.463,12.784c12.583-0.771,25.004-3.187,36.767-7.782
							c9.334-3.646,22.742-8.407,25.075-19.552c1.903-9.094-5.775-19.052-15.48-15.408c-4.334,1.627-7.97,5.981-7.717,10.813
							c0.357,6.819,6.086,8.024,11.606,9.671c8.479,2.531,12.101-10.707,3.647-13.23c-2.043-0.61-4.086-1.219-6.129-1.829
							c1.597,1.597,3.194,3.194,4.792,4.792c-0.852-2.372-5.611,4.348-6.103,4.768c-1.487,1.268-3.325,2.107-5.053,2.99
							c-4.323,2.21-8.792,4.075-13.396,5.615c-9.098,3.044-18.438,4.845-28.009,5.432c1.154,4.261,2.308,8.522,3.463,12.784
							c13.612-9.985,27.224-19.969,40.835-29.954c7.004-5.137,1.048-16.055-6.925-11.847
							c-54.266,28.639-106.522,60.941-156.401,96.678c-7.063,5.061-0.948,16.204,6.925,11.847
							c60.53-33.495,123.439-62.509,188.254-86.697c3.032-1.132,4.824-3.367,5.036-6.615c0.776-11.863-7.34-21.828-17.814-26.467
							c-12.914-5.719-26.776-1.947-38.993,3.727c-13.452,6.248-26.405,14.045-39.175,21.568
							c-12.762,7.519-25.271,15.493-37.186,24.301c-11.519,8.514-22.383,17.764-32.529,27.875
							c-8.913,8.882-17.641,18.445-28.577,24.892c-5.197,3.064-10.728,5.217-16.718,6.084c-7.657,1.109-15.54,0.568-23.059,2.683
							c-13.427,3.776-23.942,14.035-34.403,22.716c-28.566,23.705-57.132,47.411-85.699,71.116
							C1002.38,3067.36,1012.133,3077.02,1018.883,3071.418L1018.883,3071.418z"/>
					</g>
				</g>
			</g>
			<g>
				<g>
					<g>
						<path style="fill:#223A14;" d="M1315.694,2896.545c9.553-3.604,18.201-8.743,25.878-15.486c2.705-2.376,2.61-7.306,0-9.702
							c-2.884-2.648-6.817-2.534-9.702,0c-0.79,0.694-1.59,1.375-2.408,2.036c-0.306,0.248-0.622,0.486-0.925,0.736
							c1.667-1.375,0.197-0.158-0.18,0.121c-1.531,1.133-3.107,2.207-4.722,3.218c-3.287,2.059-6.734,3.845-10.3,5.37
							c0.546-0.23,1.093-0.461,1.639-0.692c-0.969,0.408-1.945,0.798-2.928,1.169c-1.713,0.646-3.146,1.523-4.1,3.153
							c-0.861,1.47-1.225,3.638-0.692,5.286C1308.313,2895.024,1312.099,2897.901,1315.694,2896.545L1315.694,2896.545z"/>
					</g>
				</g>
			</g>
			<g>
				<g>
					<g>
						<path style="fill:#223A14;" d="M1120.826,2983.786c18.813,3.765,38.401,0.751,55.071-8.824
							c3.211-1.844,4.321-6.206,2.461-9.386c-1.887-3.227-6.162-4.313-9.386-2.461c-13.458,7.731-29.535,10.436-44.498,7.441
							c-3.63-0.726-7.408,1.04-8.439,4.792C1115.106,2978.726,1117.176,2983.055,1120.826,2983.786L1120.826,2983.786z"/>
					</g>
				</g>
			</g>
			<g>
				<g>
					<g>
						<path style="fill:#223A14;" d="M996.025,3087.38c8.828,0,8.843-13.72,0-13.72
							C987.197,3073.66,987.182,3087.38,996.025,3087.38L996.025,3087.38z"/>
					</g>
				</g>
			</g>
			<g>
				<g>
					<g>
						<path style="fill:#223A14;" d="M2121.442,2215.749c-107.718,61.21-210.667,130.625-307.859,207.457
							c-27.633,21.844-54.774,44.305-81.435,67.324c-6.769,5.844,2.941,15.129,9.702,9.702
							c83.331-66.893,170.482-129.002,260.901-185.952c25.455-16.033,51.173-31.645,77.124-46.861
							c7.683-4.505,0.926-15.753-6.925-11.847c-38.2,19.006-76.399,38.011-114.599,57.017c2.771,3.591,5.542,7.183,8.313,10.774
							c24.565-23.092,52.52-42.014,82.993-56.428c-3.359-2.583-6.719-5.165-10.078-7.747c-4.836,12.686-14.466,22.433-26.61,28.27
							c-6.097,2.93-3.18,13.193,3.462,12.784c51.692-3.182,99.857-34.474,123.015-80.958c3.958-7.944-6.84-14.2-11.847-6.925
							c-13.005,18.893-31.407,33.914-52.646,42.65c2.225,3.822,4.45,7.644,6.675,11.466c18.062-15.391,36.123-30.781,54.185-46.172
							c6.731-5.735-3.014-15.401-9.702-9.702c-18.062,15.391-36.123,30.781-54.185,46.172c-5.028,4.285,0.343,14.07,6.675,11.466
							c24.797-10.199,45.627-26.846,60.845-48.956c-3.949-2.308-7.898-4.616-11.847-6.925
							c-20.958,42.067-64.115,71.265-111.168,74.162c1.154,4.261,2.308,8.522,3.463,12.784c15.484-7.443,26.833-20.512,32.916-36.47
							c2.343-6.146-5.244-10.034-10.078-7.747c-31.494,14.897-60.389,34.714-85.77,58.573c-5.918,5.563,1.589,14.12,8.313,10.775
							c38.2-19.006,76.399-38.011,114.599-57.017c-2.308-3.949-4.617-7.898-6.925-11.847
							c-93.024,54.545-182.927,114.371-269.098,179.207c-24.194,18.204-48.093,36.798-71.703,55.751
							c3.234,3.234,6.468,6.468,9.702,9.702c93.466-80.697,193.05-154.208,297.737-219.699
							c29.213-18.276,58.822-35.911,88.781-52.936C2136.043,2223.234,2129.138,2211.375,2121.442,2215.749L2121.442,2215.749z"/>
					</g>
				</g>
			</g>
			<g>
				<g>
					<path style="fill:#223A14;" d="M2729.406,1004.388c-40.117-109.74-108.333-204.786-192.331-286.176
						c-28.109-27.796-57.303-54.801-87.628-80.636c-6.698-5.742,1.122-16.571,8.741-11.535
						c67.582,44.463,131.125,94.979,187.124,153.737c27.852,29.81,53.86,61.726,76.787,96.162
						c17.32,25.735,33.142,53.159,42.431,83.005c3.432,11.105,5.694,22.67,7.261,34.233
						C2775.167,1018.999,2739.121,1028.423,2729.406,1004.388L2729.406,1004.388z"/>
				</g>
			</g>
			<g>
				<g>
					<path style="fill:#223A14;" d="M2663.108,978.821c-124.29,0-235.154-98.708-306.245-278.042
						c-46.589-77.615-101.948-114.326-169.045-112.427c-6.338,0.237-11.79-3.845-13.557-9.812
						c-1.77-5.967,0.698-12.378,6.013-15.618c138.643-84.497,295.359-93.601,408.997-23.76
						c120.542,74.087,178.538,221.255,163.303,414.397c-0.435,5.513-4.136,10.225-9.387,11.953
						C2716.062,974.442,2689.287,978.821,2663.108,978.821z M2738.896,952.481h0.049H2738.896z M2232.976,565.189
						c57.405,12.805,107.046,53.826,148.015,122.473c0.378,0.637,0.708,1.304,0.979,1.992
						c78.406,198.552,206.477,292.209,343.923,252.488c11.88-177.769-41.565-312.346-150.991-379.6
						C2480.324,504.417,2352.417,506.177,2232.976,565.189z"/>
				</g>
			</g>
			<g style="opacity:0.2;">
				<g>
					<g>
						<path style="fill:#223A14;" d="M3449.325,1338.455c-3.642-35.348-20.84-55.012-50.005-60.766
							c-1.242,17.383-11.083,33.366-26.41,42.492l-129.429,77.2c-7.135,4.254-15.092,6.998-23.324,7.958l-25.612,3.065
							l-358.285,276.603c-128.149,134.734-249.94,280.354-404.569,369.81l-189.296,135.787l-52.11,37.384
							c-128.588-39.462-258.726-73.848-390.06-102.896l-99.885,68.968l-292.656,227.302c12.211,29.773,30.825,58.037,49.027,84.792
							c37.95,55.894,79.585,114.533,134.063,151.93l-152.739,109.578c-17.511-37.202-37.773-73.143-60.629-107.336
							c-23.828-35.673-51.406-70.295-88.359-92.156c-14.452-8.552-29.819-14.864-45.735-19.163l-482.181,374.385
							c86.295-31.085,143.491-22.348,180.012-8.278c55.741,21.475,85.505,63.921,146.351,64.029
							c33.437,0.059,60.636-12.696,77.749-22.867c3.463-0.134,7.001-0.313,10.582-0.52l-106.526,76.414l-202.547,145.321
							l43.2,74.826l209.465-150.284l347.858-249.528l218.658-156.87l606.579-435.166l189.296-135.787
							c154.629-89.457,276.42-235.076,404.569-369.81l358.285-276.604l25.612-3.064c8.232-0.96,16.19-3.704,23.324-7.958
							l129.429-77.2C3441.001,1379.342,3451.475,1359.219,3449.325,1338.455z"/>
					</g>
				</g>
			</g>
			<g style="opacity:0.6;">
				<g>

						<ellipse transform="matrix(0.1414 -0.99 0.99 0.1414 1545.8145 2915.7327)" style="fill:#FFFFFF;" cx="2453.818" cy="566.709" rx="16.209" ry="62.081"/>
				</g>
			</g>
			<g>
				<g>

						<ellipse transform="matrix(0.866 -0.5 0.5 0.866 -1439.3878 825.8602)" style="fill:#FBC587;" cx="821.383" cy="3098.865" rx="79.992" ry="177.174"/>
				</g>
			</g>
			<g>
				<g>
					<path style="fill:#223A14;" d="M889.751,3275.733c-47.188,0-107.974-48.896-153.486-127.725
						c-55.718-96.504-61.14-190.41-12.617-218.428c48.53-27.989,127.141,23.647,182.852,120.142l0,0
						c55.718,96.504,61.143,190.405,12.62,218.423C910.229,3273.277,900.332,3275.733,889.751,3275.733z M753.594,2958.438
						c-4.436,0-8.357,0.928-11.653,2.832c-25.22,14.561-19.458,89.692,26.008,168.447c45.471,78.75,107.656,121.314,132.874,106.739
						c25.222-14.561,19.458-89.693-26.008-168.443l0,0C835.288,2999.552,783.122,2958.438,753.594,2958.438z"/>
				</g>
			</g>
			<g style="opacity:0.2;">
				<g>
					<g>
						<path style="fill:#223A14;" d="M2312.727,2273.043c2.744,6.357-4.116,15.641-10.062,12.028l6.723-16.693
							C2310.806,2269.705,2311.949,2271.26,2312.727,2273.043z"/>
					</g>
				</g>
			</g>
			<g style="opacity:0.2;">
				<g>
					<g>
						<path style="fill:#223A14;" d="M2313.687,2257.677l-4.299,10.702c-0.137-0.137-0.274-0.274-0.457-0.412
							C2310.531,2264.537,2312.132,2261.107,2313.687,2257.677z"/>
					</g>
				</g>
			</g>
		</g>
		<g>
			<g>
				<g>
					<path style="fill:#58DA3F;" d="M2370.352,2213.343c75.926,265.49-212.638,472.345-433.556,380.399
						c-10.136-4.219-15.648-15.263-13.289-25.985c9.613-43.686,45.533-78.886,110.695-104.656l-35.767-60.434
						c-8.262-13.959-8.748-31.728,0.314-45.181c1.285-1.908,2.728-3.72,4.339-5.431c9.237-9.808,22.983-14.022,36.374-12.534
						l139.271,15.478c17.826,1.981,35.9-1.23,51.831-9.469C2295.161,2312.123,2343.649,2269.18,2370.352,2213.343z"/>
				</g>
			</g>
			<g style="opacity:0.2;">
				<g>
					<g>
						<path style="fill:#223A14;" d="M2370.352,2213.343c-18.159,37.97-46.414,69.965-82.936,97.067
							c-42.657,173.124-205.116,249.492-354.172,230.793c-4.416,8.474-7.703,17.313-9.736,26.554
							c-2.359,10.722,3.153,21.766,13.289,25.985C2157.714,2685.688,2446.279,2478.833,2370.352,2213.343z"/>
					</g>
				</g>
			</g>
			<g>
				<g>
					<path style="fill:#223A14;" d="M2050.234,2634.292c-41.306,0-82.212-7.739-120.466-23.662
						c-18.279-7.607-28.423-27.29-24.126-46.807c10.034-45.605,44.39-82.314,102.222-109.307l-25.173-42.534
						c-12.134-20.503-11.785-45.908,0.889-64.717c1.838-2.734,3.926-5.352,6.199-7.759c12.764-13.555,32.092-20.347,51.707-18.169
						l139.27,15.479c14.451,1.607,28.77-1.001,41.404-7.539c64.79-33.501,107.864-74.004,131.689-123.828
						c3.281-6.855,10.474-10.967,18.035-10.337c7.576,0.635,13.967,5.889,16.057,13.198
						c34.924,122.109-2.102,246.543-99.041,332.856C2220.569,2602.008,2134.58,2634.292,2050.234,2634.292z M2034.172,2357.52
						c-7.019,0-13.494,2.544-17.766,7.08c-0.913,0.967-1.743,2.007-2.476,3.096c-4.834,7.173-4.731,17.236,0.249,25.654
						l35.764,60.435c2.727,4.604,3.298,10.176,1.565,15.244c-1.733,5.063-5.601,9.116-10.579,11.084
						c-57.712,22.827-91.208,53.638-99.556,91.577c-0.476,2.163,0.579,4.38,2.451,5.161
						c103.479,43.076,229.382,18.335,320.742-63.013c75.703-67.402,109.966-157.138,97.449-251.294
						c-28.525,38.652-69.158,71.367-123.049,99.233c-19.067,9.863-40.605,13.804-62.251,11.406l-139.275-15.478
						C2036.343,2357.583,2035.251,2357.52,2034.172,2357.52z"/>
				</g>
			</g>
		</g>
		<g>
			<g>
				<g>
					<g>
						<path style="fill:#FFDC46;" d="M2670.555,1310.969c0,21.358-3.659,41.847-10.336,60.873
							c-25.108,71.483-93.207,122.706-173.243,122.706c-101.394,0-183.579-82.186-183.579-183.579
							c0-85.798,58.815-157.831,138.347-177.954c14.452-3.658,29.636-5.625,45.232-5.625
							C2588.37,1127.39,2670.555,1209.575,2670.555,1310.969z"/>
					</g>
				</g>
				<g>
					<g>
						<path style="fill:#223A14;" d="M2660.219,1371.842c-25.108,71.483-93.207,122.706-173.243,122.706
							c-101.394,0-183.579-82.186-183.579-183.579c0-85.798,58.815-157.831,138.347-177.954
							C2553.583,1139.845,2645.523,1248.083,2660.219,1371.842z"/>
					</g>
				</g>
				<g>
					<g>
						<circle style="fill:#FFFFFF;" cx="2570.823" cy="1239.699" r="54.5"/>
					</g>
				</g>
				<g>
					<g>
						<path style="fill:#223A14;" d="M2486.975,1508.267c-108.792,0-197.3-88.508-197.3-197.3
							c0-90.457,61.15-169.102,148.706-191.252c15.84-4.014,32.192-6.047,48.594-6.047c108.792,0,197.3,88.508,197.3,197.3
							c0,22.405-3.738,44.414-11.108,65.417C2645.456,1455.269,2570.632,1508.267,2486.975,1508.267z M2486.975,1141.109
							c-14.133,0-28.218,1.753-41.86,5.208c-75.366,19.067-127.998,86.772-127.998,164.651c0,93.66,76.199,169.858,169.858,169.858
							c72.026,0,136.445-45.625,160.3-113.533c6.343-18.071,9.558-37.024,9.558-56.326
							C2656.833,1217.308,2580.635,1141.109,2486.975,1141.109z"/>
					</g>
				</g>
				<g>
					<g>
						<path style="fill:#58DA3F;" d="M2651.987,1714.989c-27.167,27.807-65.218,42.214-104.047,40.796l-86.896-3.11
							c0.229,0.549,0.457,1.143,0.64,1.692c22.639,59.135,37.686,113.239,45.826,162.312
							c53.555,322.018-189.113,428.625-533.907,323.848c-98.284,25.291-201.553,13.354-306.788-13.72l-17.562,11.388
							l-109.397,70.935h-0.046L1111.871,2586.6c-380.284-195.287-387.19-643.349-149.37-911.675l-59.318,5.946
							c-7.272,0.732-12.486-7.089-8.827-13.446c45.369-79.258,117.995-121.289,200.775-149.507l-45.597-20.764
							c-7.318-3.339-8.69-13.08-2.653-18.431c41.984-37.456,100.022-53.326,165.605-59.135
							c14.36-176.079,42.121-334.092,79.761-478.705c7.5-28.767,28.584-51.955,56.299-62.656
							c422.588-163.273,1054.596,109.031,1267.994,488.767C2714.826,1535.617,2716.976,1648.491,2651.987,1714.989z"/>
					</g>
				</g>
				<g>
					<g>
						<ellipse style="fill:#33A91F;" cx="1634.024" cy="955.348" rx="93.756" ry="57.202"/>
					</g>
				</g>
				<g>
					<g>
						<ellipse style="fill:#33A91F;" cx="1493.009" cy="1045.813" rx="54.357" ry="46.772"/>
					</g>
				</g>
				<g>
					<g>
						<path style="fill:#FFDE43;" d="M1491.378,2108.092c38.218,61.89-23.6,142.042-115.755,156.852l149.606,53.65l141.571-91.788
							L1491.378,2108.092z"/>
					</g>
				</g>
				<g style="opacity:0.6;">
					<g>
						<path style="fill:#FFFFFF;" d="M2478.805,1788.888c0.229,0.549,0.457,1.143,0.64,1.692
							c20.801,54.363,35.149,104.446,43.679,150.329c-3.924-45.597-14.448-96.139-32.16-151.587L2478.805,1788.888z"/>
					</g>
				</g>
				<g style="opacity:0.6;">
					<g>
						<path style="fill:#FFFFFF;" d="M924.184,1716.76c-93.786,136.283-132.331,304.687-102.644,461.476
							c-12.686-147.425,32.019-300.4,123.72-423.969C957.468,1737.817,944.568,1714.717,924.184,1716.76L924.184,1716.76z"/>
					</g>
				</g>
				<g style="opacity:0.6;">
					<g>
						<path style="fill:#FFFFFF;" d="M1064.643,1514.937c1.219-1.088,2.497-2.095,3.742-3.145
							c-67.33,27.951-125.518,68.355-164.028,135.633c-3.659,6.357,1.555,14.178,8.827,13.446l31.743-3.182
							c33.555-38.398,75.462-65.391,122.153-85.867c16.665-7.308,16.776-30.913,0.215-38.454l0,0
							C1059.978,1530.03,1058.606,1520.288,1064.643,1514.937z"/>
					</g>
				</g>
				<g style="opacity:0.6;">
					<g>
						<path style="fill:#FFFFFF;" d="M2616.543,1366.992c-213.398-379.734-845.406-652.039-1267.995-488.765
							c-27.715,10.701-48.799,33.889-56.299,62.656c-1.438,5.525-2.833,11.106-4.243,16.67
							c-8.218,33.574-15.919,67.852-23.033,102.922c-6.039,28.328-11.412,57.41-16.195,87.158
							c-13.506,79.832-24.086,163.618-31.29,251.953c-1.106,0.1-2.191,0.222-3.292,0.327c-0.576,6.55-1.17,13.074-1.708,19.673
							c-63.281,5.605-119.492,20.637-161.079,55.332c0.89,0.876,1.89,1.67,3.126,2.234l35.239,16.047
							c36.63-21.438,81.268-32.122,130.328-36.902c-2.136,56.702-2.979,114.866-2.599,174.412
							c18.582-237.224,59.172-453.977,137.125-635.984c21.323-49.785,67.59-84.292,121.345-90.901
							c406.306-49.936,910.811,199.492,1096.926,530.676c66.145,113.484,88.691,201.682,76.591,267.522
							c2.571-2.253,5.092-4.573,7.499-7.036c16.554-16.938,28.711-36.912,36.066-60.029
							C2705.337,1569.072,2682.837,1480.732,2616.543,1366.992z"/>
					</g>
				</g>
				<g>
					<g>
						<path style="fill:#FFDE43;" d="M1973.604,2240.526c-98.284,25.291-201.553,13.354-306.788-13.72l-17.562,11.388
							c-36.529-21.696-80.416-52.493-124.45-95.591c-28.543-27.937-51.57-55.583-69.964-80.628
							c-18.938-88.2-1.084-131.535,19.464-154.838c78.446-88.959,276.473,22.975,415.834-85.083
							c36.407-28.23,57.419-62.641,69.379-86.896c50.903,180.423,263.34,156.641,403.883,36.221
							c31.1-10.839,63.983-16.144,98.284-17.013C2632.687,2201.285,2370.947,2361.265,1973.604,2240.526z"/>
					</g>
				</g>
				<g>
					<g>
						<path style="fill:#223A14;" d="M1111.885,2604.879c-2.856,0-5.723-0.669-8.354-2.021
							c-167.485-85.996-277.644-228.794-310.183-402.085c-32.52-173.184,14.683-358.13,126.675-503.201l-15.027,1.504
							c-10.271,1.008-20.1-3.718-25.708-12.366c-5.583-8.608-5.894-19.475-0.813-28.357
							c35.715-62.424,90.063-108.184,169.253-141.929l-5.774-2.632c-9.043-4.119-15.332-12.439-16.821-22.261
							c-1.499-9.89,2.075-19.785,9.563-26.462c38.154-34.045,89.536-53.953,160.85-62.148
							c14.175-164.197,40.056-317.017,79.016-466.66c8.894-34.165,34.089-62.244,67.397-75.11
							c201.814-77.961,466.372-63.071,725.838,40.862c249.231,99.834,460.339,270.308,564.709,456.018
							c97.571,167.434,108.574,291.921,32.559,369.758c-30.281,31.006-73.215,47.888-117.773,46.284l-59.585-2.126
							c86.226,241.799,34.458,369.031-25.635,433.611c-92.668,99.59-270.691,119.16-488.914,53.945
							c-86.409,21.133-183.081,16.987-303.105-12.998l-548.213,355.43C1118.823,2603.887,1115.359,2604.879,1111.885,2604.879z
							 M962.49,1656.646c6.816,0,13.135,3.806,16.284,9.966c3.428,6.704,2.397,14.827-2.598,20.461
							c-125.076,141.111-179.978,330.623-146.87,506.951c29.8,158.701,129.643,290.225,281.597,371.392l545.947-353.96
							c4.294-2.783,9.548-3.643,14.504-2.368c119.78,30.786,214.375,35.151,297.693,13.721c3.245-0.83,6.665-0.762,9.873,0.215
							c206.558,62.764,372.893,47.31,456.365-42.388c79.009-84.912,82.017-230.623,8.699-421.384
							c-2.205-5.732-1.384-12.19,2.185-17.188c3.567-5,9.463-7.944,15.542-7.656l86.882,3.103c34.29,1.16,67.2-11.638,90.293-35.286
							c63.105-64.617,50.273-174.307-38.135-326.021c-100.557-178.919-304.827-343.396-546.56-440.227
							c-250.972-100.527-505.764-115.359-699.05-40.696c-22.351,8.633-39.238,27.4-45.176,50.198
							c-39.617,152.178-65.532,307.747-79.231,475.596c-0.725,8.884-7.744,15.95-16.621,16.736
							c-65.481,5.791-112.441,20.947-146.533,47.454l35.122,16.008c6.821,3.108,11.057,10.063,10.686,17.549
							c-0.371,7.488-5.271,13.989-12.366,16.411c-86.716,29.585-143.413,68.726-181.111,125.581l40.752-4.077
							C961.277,1656.675,961.885,1656.646,962.49,1656.646z M1212.502,1419.588h0.049H1212.502z"/>
					</g>
				</g>
				<g>
					<g>
						<path style="fill:#223A14;" d="M1252.885,1227.012c-21.416,168.311-35.66,337.965-31.079,507.715
							c0.146,11.87-17.505,13.073-18.608,0.861c-10.629-170.852-2.287-342.344,13.32-512.595
							C1219.53,1198.708,1255.192,1202.385,1252.885,1227.012L1252.885,1227.012z"/>
					</g>
				</g>
				<g>
					<g>
						<path style="fill:#223A14;" d="M2133.442,1879.464c-28.108,0-54.153-5.037-77.463-15.281
							c-39.275-17.256-88.599-57.927-100.53-153.679c-1.248-10.024,5.867-19.165,15.891-20.415
							c10.054-1.274,19.167,5.867,20.417,15.894c7.761,62.302,35.058,105.425,78.94,124.705
							c68.889,30.266,174.348,2.532,282.095-74.197c18.777-13.369,41.038-20.435,64.382-20.435h90.308
							c10.103,0,18.293,8.191,18.293,18.293s-8.191,18.293-18.293,18.293h-90.308c-15.693,0-30.615,4.722-43.159,13.652
							C2288.047,1847.515,2204.221,1879.461,2133.442,1879.464z"/>
					</g>
				</g>
				<g>
					<g>
						<path style="fill:#223A14;" d="M1914.9,1794.051c-3.012-37.76,12.141-78.39,45.141-100.234
							c20.545-13.118,48.184-14.444,69.092-1.562c3.808,3.471,14.52,7.743,9.791,13.915c-0.688,0.716-1.538,1.138-2.452,1.309
							c-27.25,5.513-43.959,10.418-62.588,28.108c-17.958,17.37-30.286,40.806-46.765,61.875
							C1923.67,1802.451,1915.248,1800.042,1914.9,1794.051L1914.9,1794.051z"/>
					</g>
				</g>
				<g>
					<g>
						<path style="fill:#223A14;" d="M2316.587,2183.736c-23.713,0-49.16-5.098-75.396-15.42
							c-102.986-40.498-218.325-165.366-228.206-343.816c-0.305-5.518,2.729-10.681,7.698-13.098
							c4.966-2.417,10.903-1.619,15.056,2.031c70.046,61.533,183.975,43.962,312.585-48.22c0.581-0.415,1.194-0.786,1.831-1.106
							l42.764-21.492c3.528-1.77,7.651-1.941,11.309-0.461c3.66,1.482,6.504,4.468,7.805,8.196
							c66.733,191.011,66.108,332.17-1.758,397.468C2385.537,2171.617,2353.125,2183.736,2316.587,2183.736z M2043.1,1852.623
							c19.343,150.491,118.792,255.025,208.132,290.156c56.255,22.129,107.29,16.758,140.017-14.737
							c57.178-55.014,57.012-183.513-0.056-353.848l-27.759,13.95C2237.883,1877.855,2123.291,1900.386,2043.1,1852.623z"/>
					</g>
				</g>
				<g>
					<g>
						<path style="fill:#223A14;" d="M2399.082,1754.873c216.003,618.284-350.524,463.929-372.397,68.867
							c72.621,63.804,189.313,53.196,329.633-47.374L2399.082,1754.873z"/>
					</g>
				</g>
				<g>
					<g>
						<path style="fill:#F991B9;" d="M2041.071,1911.384c166.923-98.477,286.976,124.479,182.506,233.95
							C2130.93,2088.994,2067.192,2012.986,2041.071,1911.384z"/>
					</g>
				</g>
				<g style="opacity:0.2;">
					<g>
						<path style="fill:#223A14;" d="M2245.135,1971.592c0.365,0.148,0.729,0.299,1.092,0.45
							c-32.863-70.115-111.648-115.823-205.155-60.658c21.517,83.698,68.615,149.99,136.321,202.265
							c-8.637-11.446-16.578-23.366-23.79-35.782C2118.36,2017.19,2180.146,1945.129,2245.135,1971.592z"/>
					</g>
				</g>
				<g>
					<g>
						<path style="fill:#223A14;" d="M2223.576,2154.478c-1.633,0-3.276-0.435-4.751-1.328
							c-98.347-59.805-161.133-140.381-186.614-239.487c-1.013-3.945,0.703-8.086,4.211-10.156
							c86.836-51.218,158.525-18.132,196.665,29.919c45.203,56.953,59.551,152.791-2.893,218.22
							C2228.42,2153.511,2226.01,2154.478,2223.576,2154.478z M2051.731,1915.853c24.976,90.286,80.732,161.614,170.168,217.693
							c47.649-55.908,36.511-138.789-3.14-188.745C2176.894,1892.051,2114.836,1881.458,2051.731,1915.853z"/>
					</g>
				</g>
				<g>
					<g>
						<path style="fill:#223A14;" d="M2066.013,2282.684c-118.852-34.122-228.386-91.054-334.182-153.046
							c-3.53-2.078-4.709-6.624-2.632-10.154c2-3.396,6.309-4.602,9.775-2.839c107.162,54.512,218.735,104.382,335.981,130.562
							C2099.004,2253.334,2090.296,2288.664,2066.013,2282.684L2066.013,2282.684z"/>
					</g>
				</g>
				<g>
					<g>
						<path style="fill:#223A14;" d="M1757.844,2264.456c-124.294-30.949-251.541-94.273-316.728-209.745
							c-4.704-8.481,7.52-16.178,13.051-8.014c16.954,26.042,37.437,49.57,60.547,70.022
							c70.03,61.951,160.31,94.043,251.145,112.039C1790.041,2234.235,1782.283,2269.814,1757.844,2264.456L1757.844,2264.456z"/>
					</g>
				</g>
				<g>
					<g>
						<path style="fill:#223A14;" d="M1470.141,1296.867c11.441-43.863,26.994-80.663,46.256-111.09
							c9.514-15.029,23.58-26.743,40.305-32.801c79.943-28.954,143.531-16.818,192.275,32.603
							c1.392,18.432-2.613,31.581-22.722,28.965c-43.61-11.906-85.86-9.202-126.533,10.459
							c-41.207,18.684-72.433,46.974-94.518,84.06C1491.498,1312.93,1479.051,1311.849,1470.141,1296.867z"/>
					</g>
				</g>
				<g>
					<g>
						<path style="fill:#223A14;" d="M2316.233,988.92c57.931-129.582,213.429-126.533,254.59,48.784
							c-2.333,13.812-10.646,22.586-35.825,17.15l-51.469-60.048c-14.329-16.717-37.746-22.394-58.14-14.094l-64.182,26.121
							C2333.169,1019.304,2317.765,1013.917,2316.233,988.92z"/>
					</g>
				</g>
				<g>
					<g>
						<path style="fill:#FFDC46;" d="M1940.355,1571.29c0,88.451-62.611,162.312-145.894,179.646
							c-12.166,2.607-24.788,3.934-37.731,3.934c-101.394,0-183.579-82.186-183.579-183.58
							c0-101.393,82.185-183.624,183.579-183.624c15.595,0,30.734,1.966,45.186,5.625
							C1881.494,1413.414,1940.355,1485.492,1940.355,1571.29z"/>
					</g>
				</g>
				<g>
					<g>
						<path style="fill:#223A14;" d="M1756.745,1768.594c-108.801,0-197.317-88.518-197.317-197.319
							c0-108.801,88.516-197.317,197.317-197.317c108.801,0,197.317,88.516,197.317,197.317
							C1954.062,1680.076,1865.547,1768.594,1756.745,1768.594z M1756.745,1401.4c-93.669,0-169.875,76.206-169.875,169.875
							c0,93.672,76.206,169.878,169.875,169.878c93.67,0,169.876-76.206,169.876-169.878
							C1926.621,1477.606,1850.415,1401.4,1756.745,1401.4z"/>
					</g>
				</g>
				<g>
					<g>

							<ellipse transform="matrix(0.3421 -0.9397 0.9397 0.3421 66.6379 3204.9482)" style="fill:#223A14;" cx="2322.041" cy="1554.887" rx="18.294" ry="44.884"/>
					</g>
				</g>
				<g>
					<g>
						<path style="fill:#223A14;" d="M1940.355,1571.29c0,88.451-62.611,162.312-145.894,179.646
							c-23.965-8.369-50.628-22.867-73.542-47.793c-53.51-58.266-56.985-141.549-31.557-202.376
							c20.626-49.302,61.742-87.445,112.553-107.476C1881.494,1413.414,1940.355,1485.492,1940.355,1571.29z"/>
					</g>
				</g>
				<g>
					<g>

							<ellipse transform="matrix(0.2912 -0.9567 0.9567 0.2912 299.187 3433.0977)" style="fill:#223A14;" cx="2466.401" cy="1514.644" rx="44.884" ry="16.213"/>
					</g>
				</g>
				<g>
					<g>
						<ellipse style="fill:#FFFFFF;" cx="1827.298" cy="1554.887" rx="59.148" ry="68.609"/>
					</g>
				</g>
				<g>
					<g>
						<path style="fill:#223A14;" d="M2787.3,1327.357"/>
					</g>
				</g>
				<g>
					<g>

							<ellipse transform="matrix(0.7071 -0.7071 0.7071 0.7071 -946.4296 1244.0422)" style="fill:#33A91F;" cx="1028.477" cy="1764.463" rx="74.319" ry="46.889"/>
					</g>
				</g>
				<g>
					<g>

							<ellipse transform="matrix(0.6429 -0.7659 0.7659 0.6429 -1093.5112 1444.8667)" style="fill:#33A91F;" cx="1002.885" cy="1895.24" rx="48.021" ry="34.29"/>
					</g>
				</g>
				<g>
					<g>

							<ellipse transform="matrix(0.6429 -0.7659 0.7659 0.6429 -1085.0758 1389.7628)" style="fill:#33A91F;" cx="948.004" cy="1858.641" rx="24.011" ry="17.151"/>
					</g>
				</g>
				<g style="opacity:0.2;">
					<g>
						<path style="fill:#223A14;" d="M1973.604,2240.526c-98.284,25.291-201.553,13.354-306.788-13.72l-17.562,11.388
							l-109.397,70.935h-0.046c-91.652-42.899-194.738-51.68-305.096-38.463c99.565-25.291,167.252-66.681,202.01-124.673
							c29.911-49.988,77.2-87.124,133.774-101.073l68.556-16.876c27.807-6.86,54.973-16.144,81.088-27.67
							c26.114-11.571,51.268-25.383,75.05-41.298c59.364-39.789,138.896-31.602,188.29,19.986
							c246.419,257.441,491.419,291.422,523.982-62.428l0.046,0.046C2561.066,2238.697,2318.398,2345.304,1973.604,2240.526z"/>
					</g>
				</g>
			</g>
			<g>
				<g>
					<g>
						<path style="fill:#58DA3F;" d="M1018.892,2309.128c-274.408,92.994-144.637,586.929,292.702,513.753
							c40.162,61.254,85.858,102.43,140.916,109.641c5.961,0.781,12.057-0.802,16.798-4.499
							c20.837-16.244,32.819-38.234,36.658-65.506l32.101,17.285c10.795,5.813,24.187,1.418,29.616-9.574
							c21.303-43.135,13.864-102.891-3.08-168.142c8.585-167.444-224.967-291.469-488.543-410.109"/>
					</g>
				</g>
				<g style="opacity:0.6;">
					<g>
						<g>
							<path style="fill:#FFFFFF;" d="M1469.308,2928.024c-29.843,14.407-99.944-28.11-115.028-88.373
								c-6.674-26.663-0.893-50.07,3.049-62.14c-365.274,61.118-515.921-273.332-395.791-439.41
								c-194.691,138.321-52.835,552.193,350.057,484.781c40.162,61.254,85.858,102.43,140.916,109.641
								C1458.471,2933.303,1464.568,2931.72,1469.308,2928.024c10.812-8.43,18.413-17.945,17.969-18.311
								C1486.806,2909.325,1480.243,2922.745,1469.308,2928.024z"/>
						</g>
					</g>
				</g>
				<g>
					<g>
						<path style="fill:#223A14;" d="M1455.425,2951.007c-1.758,0-3.521-0.112-5.278-0.342
							c-53.792-7.046-102.031-42.373-147.229-107.905c-247.139,36.27-399.478-104.829-436.848-253.506
							c-33.774-134.365,26.653-256.685,146.951-297.451c9.563-3.232,19.956,1.88,23.198,11.45s-1.887,19.956-11.455,23.198
							c-119.055,40.347-147.666,156.587-123.21,253.887c33.994,135.234,175.881,263.183,407.021,224.502
							c7.161-1.206,14.343,1.948,18.318,8.013c40.913,62.397,82.781,95.61,127.993,101.533c1.143,0.151,2.349-0.137,3.176-0.791
							c16.812-13.105,26.555-30.645,29.79-53.623c0.835-5.927,4.514-11.069,9.854-13.774c5.342-2.7,11.663-2.622,16.934,0.215
							l32.102,17.285c0.791,0.43,1.621,0.503,2.48,0.229c0.635-0.205,1.509-0.679,2.058-1.797
							c16.311-33.022,14.958-80.962-4.382-155.444c-0.469-1.807-0.657-3.672-0.562-5.537
							c8.203-160.029-242.319-286.504-477.783-392.49c-9.211-4.146-13.318-14.976-9.172-24.189
							c4.146-9.209,14.976-13.32,24.192-9.17c256.436,115.425,506.055,243.301,499.429,424.858
							c14.336,55.854,26.919,125.864,1.084,178.174c-4.792,9.707-13.442,17.163-23.733,20.449
							c-10.376,3.306-21.37,2.295-30.955-2.866l-11.199-6.03c-7.28,21.104-19.88,38.721-37.642,52.568
							C1473.432,2948.004,1464.497,2951.007,1455.425,2951.007z"/>
					</g>
				</g>
				<g>
					<g>
						<path style="fill:#223A14;" d="M1175.151,2808.914c65.845,7.966,140.551,6.897,192.964-38.611
							c16.731-14.46,29.973-33.042,39.746-53.616c2.385-5.027,8.394-7.171,13.42-4.785c4.841,2.297,6.992,7.986,5.017,12.891
							c-9.399,23.159-23.14,45.266-41.631,63.235c-55.661,54.63-139.254,62.215-213.066,57.302
							C1146.822,2842.845,1150.251,2806.59,1175.151,2808.914L1175.151,2808.914z"/>
					</g>
				</g>
				<g>
					<g>
						<path style="fill:#223A14;" d="M1546.269,2899.527c-26.66-10.235-48.145-27.229-66.128-45.789
							c-18.022-18.694-32.913-39.292-46.399-60.43c-2.59-4.063-1.399-9.455,2.664-12.046c3.768-2.405,8.685-1.548,11.44,1.826
							c29.173,34.59,65.543,70.795,109.324,81.511C1582.149,2871.539,1570.836,2908.021,1546.269,2899.527L1546.269,2899.527z"/>
					</g>
				</g>
				<g>
					<g>
						<path style="fill:#58DA3F;" d="M1233.845,2080.455c-54.325,37.351-104.772,77.085-142.317,124.743
							c-14.413,18.295-23.796,40.328-25.269,63.572c-8.493,133.98,199.385,258.784,390.161,281.228
							c24.051,135.816,217.467,240.122,301.235,193.515c10.386-5.779,13.615-19.234,7.189-29.232
							c-79.485-123.65-122.24-240.32-13.082-328.117c7.519-6.047,11.029-16.131,7.839-25.237
							c-19.323-55.174-116.875-39.118-178.173,0.034c-115.447-93.591-245.828-124.669-394.843-77.749
							C1270.18,2232.206,1256.713,2148.667,1233.845,2080.455z"/>
					</g>
				</g>
				<g style="opacity:0.2;">
					<g>
						<g>
							<path style="fill:#223A14;" d="M1764.844,2714.281c-79.485-123.651-122.24-240.32-13.082-328.117
								c7.519-6.047,11.028-16.13,7.839-25.237c-14.275-40.76-71.238-42.621-124.743-25.041c22.031,2.403,39.7,12,47.771,31.412
								c3.704,8.91,0.776,19.177-6.385,25.644c-103.966,93.887-54.618,207.925,31.798,326.834
								c6.987,9.615,4.531,23.232-5.508,29.595c-2.719,1.723-5.593,3.255-8.568,4.656c24.267,2.229,46.346-0.865,63.689-10.515
								C1768.042,2737.733,1771.271,2724.279,1764.844,2714.281z"/>
						</g>
					</g>
				</g>
				<g style="opacity:0.6;">
					<g>
						<g>
							<path style="fill:#FFFFFF;" d="M1225.639,2249.158c0.015-0.004,0.03-0.009,0.046-0.013c0.008-0.01,0.016-0.021,0.024-0.031
								C1225.684,2249.128,1225.663,2249.144,1225.639,2249.158z"/>
						</g>
					</g>
					<g>
						<g>
							<path style="fill:#FFFFFF;" d="M1465.885,2511.673c-182.032-31.055-368.628-149.879-360.573-276.956
								c1.477-23.301,10.913-45.366,25.37-63.7c12.412-15.741,26.256-30.603,41.157-44.815
								c-30.307,24.378-57.882,50.435-80.658,79.439c-14.27,18.171-23.463,40.088-24.922,63.146
								c-8.473,133.973,199.395,258.767,390.163,281.21c24.051,135.816,217.467,240.122,301.235,193.515
								c8.767-4.878,12.354-15.213,9.419-24.334c-85.778,13.512-226.597-67.675-264.452-176.055
								C1496.906,2526.758,1482.973,2514.588,1465.885,2511.673z"/>
						</g>
					</g>
				</g>
				<g>
					<g>
						<path style="fill:#223A14;" d="M1237.615,2085.938c-37.279,30.729-74.024,61.042-106.462,96.36
							c-19.274,21.646-40.707,44.785-46.35,73.877c-16.668,104.426,110.469,186.519,193.124,223.79
							c57.281,25.674,118.422,43.479,180.614,51.862c8.171,1.014,14.474,7.302,15.896,14.981
							c3.467,18.716,10.454,36.978,20.002,54.101c29.911,51.978,79.7,92.101,134.17,116.473
							c36.808,15.356,82.177,28.511,119.497,10.45c0-0.001,0.659-0.311,0.659-0.311c0.055-0.098,0.211-0.1,0.254-0.193
							c0.721-0.514,1.121-1.974,0.583-2.859c-0.134-0.188,0.09,0.063-0.918-1.511c-48.902-78.532-104.696-175.357-69.955-270.293
							c12.526-33.084,35.44-59.521,62.15-81.304c1.465-1.6,2.04-3.289,1.203-4.966l-0.493-1.177
							c-6.585-15.638-23.332-20.174-39.885-21.358c-37.483-1.802-78.308,12.525-110.332,32.458
							c-6.736,4.506-15.569,3.84-21.462-1.147c-76.946-66.38-176.794-107.281-279.344-99.986
							c-34.008,1.922-67.887,8.273-100.944,17.882c-12.588,3.563-18.888-15.176-6.132-19.692
							c68.192-22.909,142.284-31.574,213.691-18.386c71.854,12.704,138.702,47.145,195.769,91.762c0,0-21.367-1.206-21.367-1.206
							c40.228-24.535,84.288-40.094,132.47-38.197c26.172,1.148,56.256,12.852,68.979,38.768c4.109,7.711,6.815,16.614,5.872,25.351
							c-1.134,12.018-7.256,22.319-16.321,29.502c-1.548,1.353-6.775,5.734-8.454,7.183c-24.97,22.345-43.824,51.437-48.24,84.663
							c-8.71,70.952,29.778,137.86,65.193,197.063c3.616,6.26,12.492,17.949,14.105,25.827c5.159,19.126-5.6,39.372-24.133,46.472
							c0,0-4.47,2.122-4.47,2.122l-4.565,1.641c-100.983,33.375-242.085-59.619-289.46-147.075
							c-11.27-20.178-19.856-42.315-24.151-65.679l15.874,14.98c-49.928-5.354-98.754-17.302-145.928-34.165
							c-112.888-41.037-282.752-143.732-255.953-285.083c6.016-27.055,21.875-49.494,40.327-69.043
							c16.981-18.359,35.701-35.263,55.327-50.54c26.108-20.317,53.606-38.271,82.021-54.365
							C1237.242,2071.102,1243.721,2080.816,1237.615,2085.938L1237.615,2085.938z"/>
					</g>
				</g>
				<g style="opacity:0.2;">
					<g>
						<path style="fill:#223A14;" d="M806.603,2016.109c17.847,225.45,175.702,263.304,365.236,110.094
							c-231.834,138.742-53.854,358.242,284.582,423.795c10.496,56.798,47.337,110.565,120.238,160.184
							c10.034,64.042,9.438,123.473-16.572,171.882c-64.339-31.394-116.724-80.76-162.23-127.347
							c-25.908-56.77-77.968-151.394-176.034-238.592c-110.258-98.039-224.398-138.429-286.396-155.544
							c-13.71,9.846-27.42,19.693-41.13,29.54c-26.065-37.243-65.35-103.688-83.646-195.361
							C795.831,2120.509,800.32,2057.463,806.603,2016.109z"/>
					</g>
				</g>
			</g>
		</g>
	</g>
</g>
</svg>
